<?xml version="1.0" encoding="UTF-8"?>
<svg width="100px" height="100px" viewBox="0 0 100 100" version="1.1" xmlns="http://www.w3.org/2000/svg" xmlns:xlink="http://www.w3.org/1999/xlink">
    <title>D</title>
    <g id="Card-Symbols" stroke="none" stroke-width="1" fill="none" fill-rule="evenodd">
        <path d="M50.6455493,92 L15,92 L15,9 L50.6455493,9 C55.7725207,9.07507915 60.0387597,9.67571235 63.4442662,10.8018996 C69.2448543,12.7164179 73.9414595,16.2263682 77.5340818,21.3317503 C80.4156643,25.4611036 82.3803796,29.928313 83.4282277,34.7333786 C84.4760759,39.5384441 85,44.1182723 85,48.472863 C85,59.509498 82.7920342,68.8568521 78.3761026,76.5149254 C72.3883988,86.8383085 63.144881,92 50.6455493,92 Z M63.500401,30.1723202 C60.8433574,25.6675712 55.585405,23.4151967 47.7265437,23.4151967 L31.7842823,23.4151967 L31.7842823,77.5848033 L47.7265437,77.5848033 C55.8847902,77.5848033 61.5731088,73.549299 64.7914996,65.4782904 C66.5503876,61.0486205 67.4298316,55.7743103 67.4298316,49.6553596 C67.4298316,41.2089552 66.1200214,34.7146088 63.500401,30.1723202 Z" id="D" fill="#000000" fill-rule="nonzero"></path>
    </g>
</svg>