<?xml version="1.0" standalone="no"?>
<!DOCTYPE svg PUBLIC "-//W3C//DTD SVG 20010904//EN" "http://www.w3.org/TR/2001/REC-SVG-20010904/DTD/svg10.dtd">
<!-- Created using Krita: https://krita.org -->
<svg xmlns="http://www.w3.org/2000/svg" 
    xmlns:xlink="http://www.w3.org/1999/xlink"
    xmlns:krita="http://krita.org/namespaces/svg/krita"
    xmlns:sodipodi="http://sodipodi.sourceforge.net/DTD/sodipodi-0.dtd"
    width="249.84pt"
    height="249.84pt"
    viewBox="0 0 249.84 249.84">
<defs/>
<path id="shape0" transform="matrix(1.01213862591348 0 0 1.01213862591348 8.40042884500882 31.3374157918564)" fill="#000000" fill-opacity="0.32156862745098" stroke="#000000" stroke-width="20.88" stroke-linecap="square" stroke-linejoin="bevel" d="M227.864 92.8157C227.864 41.555 186.324 3.51966e-15 135.083 0C92.5156 2.35378 48.928 33.1703 0 92.4559C47.2466 153.394 90.8344 184.455 135.083 185.632C186.324 185.632 227.864 144.076 227.864 92.8157Z" sodipodi:nodetypes="ccccc"/><path id="shape1" transform="matrix(1.01213865260541 0 0 1.01213865260541 12.0264676109856 34.3944560150232)" fill="none" stroke="#ffffff" stroke-width="9.36" stroke-linecap="square" stroke-linejoin="bevel" d="M222.089 89.7955C222.089 40.2028 181.886 3.03658e-15 132.293 0C89.7277 1.86676 45.63 31.6786 0 89.4355C46.615 149.217 90.696 179.363 132.243 179.872C181.836 179.872 222.089 139.388 222.089 89.7955Z" sodipodi:nodetypes="ccccc"/><path id="path501" transform="matrix(0.764036720896245 0 0 -0.764036720896245 126.840320307927 155.535207939664)" fill="#ffffff" stroke-opacity="0" stroke="#000000" stroke-width="0" stroke-linecap="square" stroke-linejoin="bevel" d="M55.7313 0.00108249C52.1656 0.0496582 49.2558 1.9405 47.0019 5.67359L1.5908 78.7704C-0.499357 81.7087 -0.529816 84.9677 1.49942 88.5466C3.52867 92.1255 6.48298 93.6788 10.3623 93.2066L102.098 93.2066C105.58 93.3321 108.26 91.7787 110.139 88.5466C112.018 85.3144 112.14 82.1775 110.505 79.1359L64.0882 4.75988C62.0827 1.53877 59.297 -0.0474932 55.7313 0.00108249Z" sodipodi:nodetypes="ccczcczccz"/><path id="path5011" transform="matrix(0.764036719706769 0 0 0.764036719706769 64.3803171940918 89.2818291741316)" fill="#ffffff" stroke-opacity="0" stroke="#000000" stroke-width="0" stroke-linecap="square" stroke-linejoin="bevel" d="M55.7313 0.00108249C52.1656 0.0496582 49.2558 1.9405 47.0019 5.67359L1.5908 78.7704C-0.499357 81.7087 -0.529816 84.9677 1.49942 88.5466C3.52867 92.1255 6.48298 93.6788 10.3623 93.2066L102.098 93.2066C105.58 93.3321 108.26 91.7787 110.139 88.5466C112.018 85.3144 112.14 82.1775 110.505 79.1359L64.0882 4.75988C62.0827 1.53877 59.297 -0.0474932 55.7313 0.00108249Z" sodipodi:nodetypes="ccczcczccz"/>
</svg>
