<?xml version="1.0" encoding="UTF-8" standalone="no"?>
<!-- Created with Inkscape (http://www.inkscape.org/) -->

<svg
   version="1.1"
   id="svg10"
   width="327"
   height="327"
   viewBox="0 0 327 327"
   sodipodi:docname="Dfc-land.svg"
   inkscape:version="0.92.2 (5c3e80d, 2017-08-06)"
   inkscape:export-filename="Dfc-reverse.svg"
   inkscape:export-xdpi="96"
   inkscape:export-ydpi="96"
   xmlns:inkscape="http://www.inkscape.org/namespaces/inkscape"
   xmlns:sodipodi="http://sodipodi.sourceforge.net/DTD/sodipodi-0.dtd"
   xmlns="http://www.w3.org/2000/svg"
   xmlns:svg="http://www.w3.org/2000/svg"
   xmlns:rdf="http://www.w3.org/1999/02/22-rdf-syntax-ns#"
   xmlns:cc="http://creativecommons.org/ns#"
   xmlns:dc="http://purl.org/dc/elements/1.1/">
  <metadata
     id="metadata16">
    <rdf:RDF>
      <cc:Work
         rdf:about="">
        <dc:format>image/svg+xml</dc:format>
        <dc:type
           rdf:resource="http://purl.org/dc/dcmitype/StillImage" />
        <dc:title />
      </cc:Work>
    </rdf:RDF>
  </metadata>
  <defs
     id="defs14" />
  <sodipodi:namedview
     pagecolor="#ffffff"
     bordercolor="#666666"
     borderopacity="1"
     objecttolerance="10"
     gridtolerance="10"
     guidetolerance="10"
     inkscape:pageopacity="0"
     inkscape:pageshadow="2"
     inkscape:window-width="1920"
     inkscape:window-height="1017"
     id="namedview12"
     showgrid="false"
     inkscape:zoom="2.6402439"
     inkscape:cx="164"
     inkscape:cy="148.84988"
     inkscape:window-x="-8"
     inkscape:window-y="-8"
     inkscape:window-maximized="1"
     inkscape:current-layer="svg10"
     inkscape:showpageshadow="0"
     inkscape:pagecheckerboard="1"
     inkscape:deskcolor="#d1d1d1" />
  <path
     id="path1283"
     style="fill:#ffffff;stroke-width:2.02057"
     d="m 323.5,163.5 a 160,160 0 0 1 -160,160 160,160 0 0 1 -160,-160 160,160 0 0 1 160,-160 160,160 0 0 1 160,160 z" />
  <path
     id="path38"
     style="display:inline;fill:#000000;stroke-width:0.997696"
     d="M 161.14453,0.0234375 C 127.1177,0.59484493 93.310034,11.90479 65.617188,32.416016 54.441936,40.693173 36.921585,58.870153 29.185547,70.214844 6.3242283,103.74037 -3.8634338,145.53827 1.3261719,184.51367 c 4.7640878,35.77957 19.5382731,66.44262 44.3632811,92.07813 27.206843,28.09511 62.919457,45.73367 100.861327,49.81445 13.38116,1.4392 35.71542,0.1788 50.64063,-2.85742 C 282.54309,306.1858 339.60667,221.88381 324.60547,135.31641 318.71024,101.29692 301.87367,70.032212 276.09961,45.248047 251.01782,21.129571 219.38802,5.9483505 184.66406,1.3613281 176.86079,0.33051789 168.99688,-0.10842575 161.14453,0.0234375 Z m 6.91406,6.4394531 c 39.19875,0.8744893 75.085,15.7573154 103.44336,43.1523434 26.93906,26.023953 42.98098,56.600076 47.70313,90.925786 1.77419,12.89675 1.50752,37.62947 -0.5332,49.38281 -7.29323,42.00457 -30.26144,77.98085 -65.79102,103.05273 -17.08409,12.05559 -41.25149,22.07422 -61.92969,25.67383 -8.84662,1.54 -33.59319,2.68466 -40.4082,1.86914 C 114.29327,316.18171 87.152313,304.75938 61.050781,282.85547 30.005009,256.80245 10.540376,218.4737 6.6738281,175.78125 4.6307178,153.2223 8.2731644,128.16191 16.744141,106.49805 33.277956,64.214086 70.691641,28.386872 112.97656,14.345703 126.2219,9.9474505 135.22259,8.2004237 151.06836,6.9511719 156.79102,6.5000077 162.45877,6.3379636 168.05859,6.4628906 Z m -4.11718,17.5214844 c -1.96377,-0.0061 -3.93572,0.02688 -5.91602,0.09961 -20.51289,0.753386 -37.35248,4.811248 -54.875,13.222657 -39.598148,19.008446 -67.194791,54.59289 -76.966796,99.244138 -2.614081,20.78073 -3.276679,42.27143 1.351562,59.85742 7.247992,27.38298 17.749761,46.20244 36.203125,64.875 21.464058,21.71899 46.988049,35.16229 76.826169,40.46485 10.01107,1.77908 41.71621,1.13314 51.38477,-1.04688 49.98409,-11.27014 88.98243,-46.24824 104.59766,-93.8164 8.65646,-29.18362 8.47459,-59.84794 -0.24415,-87.03907 C 277.34297,61.946667 224.81807,24.172737 163.94141,23.984375 Z M 163.5,39 C 232.25945,39 288,94.740549 288,163.5 288,232.25945 232.25945,288 163.5,288 94.740549,288 39,232.25945 39,163.5 39,94.740549 94.740549,39 163.5,39 Z"
     sodipodi:nodetypes="sssssssssssssssssssssssssssccsssccssssss" />
  <path
     fill="currentColor"
     d="m 163.5,24 q 28.88086,0 54.21973,11.1709 25.61133,10.89843 44.54736,29.834466 18.93604,18.936038 29.83447,44.274904 Q 303,134.61914 303,163.5 q 0,28.88086 -10.89844,54.49219 -10.89843,25.33886 -29.83447,44.2749 -18.93603,18.93604 -44.54736,29.83447 Q 192.38086,303 163.5,303 134.61914,303 109.28027,292.10156 83.66894,281.20313 64.73291,262.26709 45.79687,243.33105 34.89844,217.99219 24,192.38086 24,163.5 24,134.61914 34.89844,109.28027 45.79687,83.941404 64.73291,65.005366 83.66894,46.06933 109.28027,35.1709 134.61914,24 163.5,24 Z m 2.17969,55.582029 q -1.90723,0 -3.1333,0.272461 -1.22607,0.272461 -3.13331,1.089844 -4.63183,2.452148 -7.22021,7.083984 -2.58838,4.631836 -5.31299,8.991211 -7.90136,12.533201 -15.53027,25.066411 -7.90136,12.5332 -15.6665,24.93017 -7.76514,12.39697 -15.66651,24.93018 -7.62891,12.5332 -15.53027,25.0664 -5.17675,6.81153 -0.13624,14.57666 5.04053,7.76514 13.21437,6.94776 h 34.05761 34.19385 34.19384 34.33009 q 7.6289,0.27246 11.98828,-6.94776 4.35937,-7.22021 0.54492,-14.03173 -8.71875,-13.62305 -17.4375,-27.51856 -8.44629,-13.89551 -17.16504,-27.79102 l -17.4375,-27.79101 q -8.44629,-13.89551 -17.16503,-27.791016 -1.90724,-2.997071 -5.04053,-4.904298 -3.13331,-1.907226 -6.94776,-2.179687 z"
     id="path501"
     style="display:inline;stroke-width:0.272461" />
</svg>
