<?xml version="1.0" standalone="no"?>
<!DOCTYPE svg PUBLIC "-//W3C//DTD SVG 20010904//EN" "http://www.w3.org/TR/2001/REC-SVG-20010904/DTD/svg10.dtd">
<!-- Created using Krita: https://krita.org -->
<svg xmlns="http://www.w3.org/2000/svg" 
    xmlns:xlink="http://www.w3.org/1999/xlink"
    xmlns:krita="http://krita.org/namespaces/svg/krita"
    xmlns:sodipodi="http://sodipodi.sourceforge.net/DTD/sodipodi-0.dtd"
    width="249.84pt"
    height="249.84pt"
    viewBox="0 0 249.84 249.84">
<defs/>
<path id="shape0" transform="matrix(0.720000021107259 0 0 0.720000021107259 0 0)" fill="#000000" stroke-opacity="0" stroke="#000000" stroke-width="0" stroke-linecap="square" stroke-linejoin="bevel" d="M347 173.5C347 219.497 328.708 263.658 296.183 296.183C263.658 328.708 219.497 347 173.5 347C127.503 347 83.3421 328.708 50.817 296.183C18.2919 263.658 5.63287e-15 219.497 0 173.5C-5.63287e-15 127.503 18.2919 83.3421 50.817 50.817C83.3421 18.2919 127.503 8.44931e-15 173.5 0C219.497 -8.44931e-15 263.658 18.2919 296.183 50.817C328.708 83.3421 347 127.503 347 173.5Z" sodipodi:nodetypes="ccccccccc"/><path id="shape1" transform="matrix(0.720000021107259 0 0 0.720000021107259 4.99680014648438 4.99680014648438)" fill="#ffffff" stroke-opacity="0" stroke="#000000" stroke-width="0" stroke-linecap="square" stroke-linejoin="bevel" d="M333.12 166.56C333.12 210.718 315.56 253.112 284.336 284.336C253.112 315.56 210.718 333.12 166.56 333.12C122.402 333.12 80.0084 315.56 48.7843 284.336C17.5602 253.112 5.32907e-15 210.718 0 166.56C-5.32907e-15 122.402 17.5602 80.0084 48.7843 48.7843C80.0084 17.5602 122.402 7.99361e-15 166.56 0C210.718 -7.99361e-15 253.112 17.5602 284.336 48.7843C315.56 80.0084 333.12 122.402 333.12 166.56Z" sodipodi:nodetypes="ccccccccc"/><path id="shape2" transform="matrix(0.720000021107259 0 0 0.720000021107259 13.741200402832 13.741200402832)" fill="#000000" stroke-opacity="0" stroke="#000000" stroke-width="0" stroke-linecap="square" stroke-linejoin="bevel" d="M308.83 154.415C308.83 195.353 292.55 234.656 263.603 263.603C234.656 292.55 195.353 308.83 154.415 308.83C113.477 308.83 74.1744 292.55 45.2271 263.603C16.2798 234.656 3.55271e-15 195.353 0 154.415C-3.55271e-15 113.477 16.2798 74.1744 45.2271 45.2271C74.1744 16.2798 113.477 7.10543e-15 154.415 0C195.353 -7.10543e-15 234.656 16.2798 263.603 45.2271C292.55 74.1744 308.83 113.477 308.83 154.415Z" sodipodi:nodetypes="ccccccccc"/><path id="shape0" transform="translate(24.8413792090935, 114.07500696861)" fill="#ffffff" fill-rule="evenodd" stroke="none" stroke-width="0.72" stroke-linecap="square" stroke-linejoin="bevel" d="M0.405185 29.3255C-0.565671 18.428 0.282267 8.64042 2.15862 0C21.9953 23.347 46.3853 42.112 75.3286 56.295C69.8688 59.8512 64.2164 63.8549 58.3713 68.3062C38.3693 56.9989 7.14087 37.1718 0.405185 29.3255Z" sodipodi:nodetypes="ccccc"/><path id="shape1" transform="translate(80.2964029552453, 135.34454237934)" fill="#ffffff" fill-rule="evenodd" stroke="none" stroke-width="0.72" stroke-linecap="square" stroke-linejoin="bevel" d="M143.771 0C142.328 6.07834 140.923 11.716 136.824 17.5487C113.159 20.8656 61.4137 23.9916 11.1971 68.0418C2.609 67.9206 -0.76958 61.4281 0.145052 54.565C35.3719 26.104 80.118 2.34552 143.771 0Z" sodipodi:nodetypes="ccccc"/><path id="shape2" transform="translate(32.583479679322, 40.4199071593245)" fill="#ffffff" fill-rule="evenodd" stroke="none" stroke-width="0.72" stroke-linecap="square" stroke-linejoin="bevel" d="M53.5846 117.661C29.0341 104.797 11.4451 83.9481 0 56.6941C6.81663 41.4139 17.0044 31.5226 26.0065 24.3801C28.4644 61.9288 35.9044 87.1288 48.3265 99.9801C39.2218 73.4192 36.6231 44.9314 40.5306 14.5166C46.7196 11.0263 58.6517 4.84078 75.7169 1.79562C61.2097 35.8629 57.3596 68.201 64.1665 98.8101C67.6531 55.7929 77.6168 22.863 94.0576 0.020238C106.42 -0.205451 120.602 1.43051 136.468 6.23574C102.411 37.1244 82.9716 68.1779 78.1494 99.3963C97.4889 60.6453 122.728 32.0531 153.867 13.6199C164.184 19.4236 172.589 27.069 178.949 35.7897C134.411 53.6667 105.12 76.1735 91.0765 103.31C117.277 77.752 149.327 60.0623 187.229 50.2409C191.148 59.2654 193.212 68.8817 193.309 78.4605C150.109 83.7807 115.954 98.3477 89.6318 118.381C80.6454 115.572 71.272 109.458 53.5846 117.661Z" sodipodi:nodetypes="ccccccccccccccccc"/><path id="shape3" transform="translate(108.505535197384, 181.972282159285)" fill="#ffffff" fill-rule="evenodd" stroke="none" stroke-width="1" stroke-linecap="square" stroke-linejoin="bevel" d="M0 12.4717C6.68033 7.4207 13.1917 3.26348 19.5342 0C23.3184 1.2181 24.8579 2.94543 29.1045 3.42772C29.3125 9.50607 27.6136 16.2207 20.7125 21.1654C13.1419 18.7234 6.23769 15.8255 0 12.4717Z" sodipodi:nodetypes="ccccc"/>
</svg>
