<?xml version="1.0" standalone="no"?>
<!DOCTYPE svg PUBLIC "-//W3C//DTD SVG 20010904//EN" "http://www.w3.org/TR/2001/REC-SVG-20010904/DTD/svg10.dtd">
<!-- Created using Krita: https://krita.org -->
<svg xmlns="http://www.w3.org/2000/svg" 
    xmlns:xlink="http://www.w3.org/1999/xlink"
    xmlns:krita="http://krita.org/namespaces/svg/krita"
    xmlns:sodipodi="http://sodipodi.sourceforge.net/DTD/sodipodi-0.dtd"
    width="249.84pt"
    height="249.84pt"
    viewBox="0 0 249.84 249.84">
<defs/>
<ellipse id="shape0" transform="matrix(1.00000002931564 0 0 1.00000002931564 2.41584516776561 2.36977746035235)" rx="122.504153072002" ry="122.550220778064" cx="122.504153072002" cy="122.550220778064" fill="#ffffff" fill-rule="evenodd" stroke="#000000" stroke-width="4.32" stroke-linecap="square" stroke-linejoin="bevel"/><circle id="shape1" transform="matrix(1.00000002931564 0 0 1.00000002931564 13.8844521280247 13.8844521280247)" r="111.035548279007" cx="111.035548279007" cy="111.035548279007" fill="#000000" fill-rule="evenodd" stroke-opacity="0" stroke="#000000" stroke-width="0" stroke-linecap="square" stroke-linejoin="bevel"/><path id="path3741" transform="matrix(0.71999999908366 0 0 0.71999999908366 45.4250300233323 29.1152757121667)" fill="#ffffff" stroke-opacity="0" stroke="#000000" stroke-width="0" stroke-linecap="square" stroke-linejoin="bevel" d="M109.841 0.0439908C104.91 -0.559237 88.944 19.9969 64.1005 40.8794C46.2142 55.4287 21.5697 70.0138 8.09372 77.9871C-1.16897 81.8316 -1.44658 93.7341 2.11894 101.654C22.6829 106.656 44.4502 102.997 64.8738 108.508C73.9982 114.344 73.5352 126.385 71.1263 135.602C64.7817 144.448 52.7407 148.431 48.572 158.805C53.3887 168.577 60.3727 177.753 66.2087 186.923C63.4297 195.723 60.0577 206.878 68.8103 213.408C67.2447 204.557 66.325 197.131 73.5808 198.125C74.8749 201.467 81.3152 217.159 85.2982 226.654C79.9113 225.414 75.803 224.65 67.3292 219.665C71.3122 230.179 80.1112 236.38 89.1427 242.261C88.6797 245.735 87.7537 252.635 87.2432 256.063C78.0742 255.462 67.0047 251.894 79.3237 238.463C76.5457 241.243 71.057 245.873 68.6689 249.201C61.6441 258.995 78.7222 263.242 84.5107 268.104C89.4672 263.473 98.1742 260.37 97.5707 252.126C98.2197 230.544 107.853 210.722 110.03 189.279C111.466 210.815 118.784 233.861 122.118 252.27C123.538 260.109 129.992 263.335 134.901 267.873C142.126 264.076 155.857 257.311 154.711 254.412C151.94 247.404 145.599 244.207 140.504 238.649C151.527 251.571 142.923 256.005 133.797 256.004C130.84 254.944 130.406 243.965 129.852 241.52C140.226 237.492 148.424 230.22 152.129 219.568C147.683 221.328 138.699 224.802 134.206 226.561C139.81 217.159 140.123 204.729 149.79 196.809C153.155 194.054 151.038 216.27 153.101 212.44C159.342 200.862 157.224 195.67 153.889 186.407C159.725 177.145 166.394 168.345 171.303 158.527C166.347 148.709 155.325 144.263 148.702 135.787C146.109 126.571 145.645 114.529 154.676 108.555C175.193 102.951 197.16 107 217.802 101.746C222.773 100.714 223.537 84.7842 219.052 82.3876C191.931 66.2994 180.032 59.6802 154.875 40.1723C123.069 15.4295 115.48 -0.963722 109.841 0.0439908ZM115.495 167.743C122.257 176.45 129.111 185.157 136.336 193.54C133.927 201.089 131.427 208.592 128.74 216.047C122.257 200.579 117.58 184.416 115.495 167.743ZM104.149 167.512C102.064 184.184 97.5262 200.348 91.1797 215.862C88.4482 208.684 85.8087 201.459 83.1217 194.28C83.1018 194.213 97.2937 176.543 104.149 167.512ZM124.757 146.949C134.669 149.773 144.209 153.756 153.101 158.99C149.073 165.891 144.904 172.699 140.689 179.507C134.252 169.225 128.833 158.342 124.757 146.949ZM94.9312 146.949C90.9027 158.388 84.9026 168.319 78.5106 178.601C74.2961 171.792 70.6632 165.845 66.5882 158.99C75.5267 153.803 85.0202 149.773 94.9312 146.949Z" sodipodi:nodetypes="ccccccccccccccccccccccccccccccccccccccccccccccccccccc"/>
</svg>
