<?xml version="1.0" standalone="no"?>
<!DOCTYPE svg PUBLIC "-//W3C//DTD SVG 20010904//EN" "http://www.w3.org/TR/2001/REC-SVG-20010904/DTD/svg10.dtd">
<!-- Created using Krita: https://krita.org -->
<svg xmlns="http://www.w3.org/2000/svg" 
    xmlns:xlink="http://www.w3.org/1999/xlink"
    xmlns:krita="http://krita.org/namespaces/svg/krita"
    xmlns:sodipodi="http://sodipodi.sourceforge.net/DTD/sodipodi-0.dtd"
    width="249.84pt"
    height="249.84pt"
    viewBox="0 0 249.84 249.84">
<defs/>
<ellipse id="shape0" transform="matrix(1.00000002931564 0 0 1.00000002931564 2.41584333671045 2.36977562929794)" rx="122.504153072002" ry="122.550220778064" cx="122.504153072002" cy="122.550220778064" fill="#ffffff" fill-rule="evenodd" stroke="#000000" stroke-width="4.32" stroke-linecap="square" stroke-linejoin="bevel"/><circle id="shape1" transform="matrix(1.00000002931564 0 0 1.00000002931564 13.8844521280247 13.8844521280247)" r="111.035548279007" cx="111.035548279007" cy="111.035548279007" fill="#000000" fill-rule="evenodd" stroke-opacity="0" stroke="#000000" stroke-width="0" stroke-linecap="square" stroke-linejoin="bevel"/><path id="shape0" transform="matrix(-1 0 0 1 210.599997311937 109.996562380196)" fill="#ffffff" fill-rule="evenodd" stroke="none" stroke-width="0.72" stroke-linecap="square" stroke-linejoin="bevel" d="M0 26.6234C32.236 49.3874 60.796 77.8275 85.68 111.943C110.136 78.0075 138.576 49.5674 171 26.6234C107.839 -8.73213 65.7772 -9.01655 0 26.6234Z" sodipodi:nodetypes="cccc"/><path id="shape1" transform="translate(58.9302806071083, 67.4282156914361)" fill="#ffffff" fill-rule="evenodd" stroke="none" stroke-width="0.72" stroke-linecap="square" stroke-linejoin="bevel" d="M0 46.3594C42.0577 28.0758 91.5151 27.0736 132.59 47.0518C108.462 -16.0419 22.654 -15.0951 0 46.3594Z" sodipodi:nodetypes="ccc"/>
</svg>
