<?xml version="1.0" encoding="UTF-8" standalone="no"?>
<!-- Created with Inkscape (http://www.inkscape.org/) -->

<svg
   version="1.1"
   id="svg10"
   width="327"
   height="327"
   viewBox="0 0 327 327"
   xmlns="http://www.w3.org/2000/svg"
   xmlns:svg="http://www.w3.org/2000/svg"
   xmlns:rdf="http://www.w3.org/1999/02/22-rdf-syntax-ns#"
   xmlns:cc="http://creativecommons.org/ns#"
   xmlns:dc="http://purl.org/dc/elements/1.1/">
  <metadata
     id="metadata16">
    <rdf:RDF>
      <cc:Work
         rdf:about="">
        <dc:format>image/svg+xml</dc:format>
        <dc:type
           rdf:resource="http://purl.org/dc/dcmitype/StillImage" />
        <dc:title />
      </cc:Work>
    </rdf:RDF>
  </metadata>
  <defs
     id="defs14" />
  <path
     id="path1283"
     style="fill:#ffffff;stroke-width:2.02057"
     d="m 323.5,163.5 a 160,160 0 0 1 -160,160 160,160 0 0 1 -160,-160 160,160 0 0 1 160,-160 160,160 0 0 1 160,160 z" />
  <path
     id="path38"
     style="display:inline;fill:#000000;stroke-width:0.997696"
     d="M 161.14453,0.0234375 C 127.1177,0.59484493 93.310034,11.90479 65.617188,32.416016 54.441936,40.693173 36.921585,58.870153 29.185547,70.214844 6.3242283,103.74037 -3.8634338,145.53827 1.3261719,184.51367 c 4.7640878,35.77957 19.5382731,66.44262 44.3632811,92.07813 27.206843,28.09511 62.919457,45.73367 100.861327,49.81445 13.38116,1.4392 35.71542,0.1788 50.64063,-2.85742 C 282.54309,306.1858 339.60667,221.88381 324.60547,135.31641 318.71024,101.29692 301.87367,70.032212 276.09961,45.248047 251.01782,21.129571 219.38802,5.9483505 184.66406,1.3613281 176.86079,0.33051789 168.99688,-0.10842575 161.14453,0.0234375 Z m 6.91406,6.4394531 c 39.19875,0.8744893 75.085,15.7573154 103.44336,43.1523434 26.93906,26.023953 42.98098,56.600076 47.70313,90.925786 1.77419,12.89675 1.50752,37.62947 -0.5332,49.38281 -7.29323,42.00457 -30.26144,77.98085 -65.79102,103.05273 -17.08409,12.05559 -41.25149,22.07422 -61.92969,25.67383 -8.84662,1.54 -33.59319,2.68466 -40.4082,1.86914 C 114.29327,316.18171 87.152313,304.75938 61.050781,282.85547 30.005009,256.80245 10.540376,218.4737 6.6738281,175.78125 4.6307178,153.2223 8.2731644,128.16191 16.744141,106.49805 33.277956,64.214086 70.691641,28.386872 112.97656,14.345703 126.2219,9.9474505 135.22259,8.2004237 151.06836,6.9511719 156.79102,6.5000077 162.45877,6.3379636 168.05859,6.4628906 Z m -4.11718,17.5214844 c -1.96377,-0.0061 -3.93572,0.02688 -5.91602,0.09961 -20.51289,0.753386 -37.35248,4.811248 -54.875,13.222657 -39.598148,19.008446 -67.194791,54.59289 -76.966796,99.244138 -2.614081,20.78073 -3.276679,42.27143 1.351562,59.85742 7.247992,27.38298 17.749761,46.20244 36.203125,64.875 21.464058,21.71899 46.988049,35.16229 76.826169,40.46485 10.01107,1.77908 41.71621,1.13314 51.38477,-1.04688 49.98409,-11.27014 88.98243,-46.24824 104.59766,-93.8164 8.65646,-29.18362 8.47459,-59.84794 -0.24415,-87.03907 C 277.34297,61.946667 224.81807,24.172737 163.94141,23.984375 Z M 163.5,39 C 232.25945,39 288,94.740549 288,163.5 288,232.25945 232.25945,288 163.5,288 94.740549,288 39,232.25945 39,163.5 39,94.740549 94.740549,39 163.5,39 Z" />
  <path
     fill="currentColor"
     d="m 163.5,303 q 28.88086,0 54.21973,-10.89844 25.61133,-10.89843 44.54736,-29.83447 18.93604,-18.93603 29.83447,-44.2749 Q 303,192.38086 303,163.5 303,134.61914 292.10156,109.28027 281.20313,83.941406 262.26709,65.005373 243.33106,46.069338 217.71973,35.170893 192.38086,23.999998 163.5,23.999998 q -28.88086,0 -54.21973,11.170895 Q 83.66894,46.069338 64.73291,65.005373 45.79687,83.941406 34.89844,109.28027 24,134.61914 24,163.5 q 0,28.88086 10.89844,54.49219 10.89843,25.33887 29.83447,44.2749 18.93603,18.93604 44.54736,29.83447 Q 134.61914,303 163.5,303 Z m 2.17969,-55.30957 q -1.90723,-0.27246 -3.1333,-0.40869 -1.22607,-0.13623 -3.13331,-1.22607 -4.63183,-2.45215 -7.22021,-7.08399 -2.58838,-4.63183 -5.31299,-8.71875 -7.90136,-12.5332 -15.53027,-25.06641 -7.90136,-12.5332 -15.6665,-25.0664 -7.76514,-12.53321 -15.66651,-24.79395 -7.62891,-12.5332 -15.53027,-25.0664 -5.17676,-6.81153 -0.13624,-14.7129 5.04053,-7.90136 13.21437,-7.08398 h 34.05761 34.19385 34.19384 q 0,0 34.33009,0.27246 7.6289,-0.54492 11.98828,6.81152 4.35937,7.35645 0.54492,13.89551 l -17.4375,27.79102 q -8.44629,13.89551 -17.16504,27.79101 l -17.4375,27.79101 q -8.44629,13.89552 -17.16504,27.51857 -1.90723,3.26953 -5.04052,5.17675 -3.13331,1.90723 -6.94776,2.17969 z"
     id="path428"
     style="stroke-width:0.272461" />
</svg>
