<?xml version="1.0" encoding="UTF-8" standalone="no"?>
<!-- Created with Inkscape (http://www.inkscape.org/) -->

<svg
   version="1.1"
   id="svg10"
   width="327"
   height="327"
   viewBox="0 0 327 327"
   sodipodi:docname="Dfc-obverse.svg"
   inkscape:version="0.92.2 (5c3e80d, 2017-08-06)"
   inkscape:export-filename="Dfc-reverse.svg"
   inkscape:export-xdpi="96"
   inkscape:export-ydpi="96"
   xmlns:inkscape="http://www.inkscape.org/namespaces/inkscape"
   xmlns:sodipodi="http://sodipodi.sourceforge.net/DTD/sodipodi-0.dtd"
   xmlns="http://www.w3.org/2000/svg"
   xmlns:svg="http://www.w3.org/2000/svg"
   xmlns:rdf="http://www.w3.org/1999/02/22-rdf-syntax-ns#"
   xmlns:cc="http://creativecommons.org/ns#"
   xmlns:dc="http://purl.org/dc/elements/1.1/">
  <metadata
     id="metadata16">
    <rdf:RDF>
      <cc:Work
         rdf:about="">
        <dc:format>image/svg+xml</dc:format>
        <dc:type
           rdf:resource="http://purl.org/dc/dcmitype/StillImage" />
        <dc:title />
      </cc:Work>
    </rdf:RDF>
  </metadata>
  <defs
     id="defs14" />
  <sodipodi:namedview
     pagecolor="#ffffff"
     bordercolor="#666666"
     borderopacity="1"
     objecttolerance="10"
     gridtolerance="10"
     guidetolerance="10"
     inkscape:pageopacity="0"
     inkscape:pageshadow="2"
     inkscape:window-width="1920"
     inkscape:window-height="1017"
     id="namedview12"
     showgrid="false"
     inkscape:zoom="2.6402439"
     inkscape:cx="164"
     inkscape:cy="148.84988"
     inkscape:window-x="-8"
     inkscape:window-y="-8"
     inkscape:window-maximized="1"
     inkscape:current-layer="svg10"
     inkscape:showpageshadow="0"
     inkscape:pagecheckerboard="1"
     inkscape:deskcolor="#d1d1d1" />
  <path
     id="path1283"
     style="display:inline;fill:#ffffff;stroke-width:2.02057"
     d="m 323.5,163.5 a 160,160 0 0 1 -160,160 160,160 0 0 1 -160,-160 160,160 0 0 1 160,-160 160,160 0 0 1 160,160 z" />
  <path
     id="path38"
     style="display:inline;fill:#000000;stroke-width:0.997696"
     d="M 161.14453,0.0234375 C 127.1177,0.59484493 93.310034,11.90479 65.617188,32.416016 54.441936,40.693173 36.921585,58.870153 29.185547,70.214844 6.3242283,103.74037 -3.8634338,145.53827 1.3261719,184.51367 c 4.7640878,35.77957 19.5382731,66.44262 44.3632811,92.07813 27.206843,28.09511 62.919457,45.73367 100.861327,49.81445 13.38116,1.4392 35.71542,0.1788 50.64063,-2.85742 C 282.54309,306.1858 339.60667,221.88381 324.60547,135.31641 318.71024,101.29692 301.87367,70.032212 276.09961,45.248047 251.01782,21.129571 219.38802,5.9483505 184.66406,1.3613281 176.86079,0.33051789 168.99688,-0.10842575 161.14453,0.0234375 Z m 6.91406,6.4394531 c 39.19875,0.8744893 75.085,15.7573154 103.44336,43.1523434 26.93906,26.023953 42.98098,56.600076 47.70313,90.925786 1.77419,12.89675 1.50752,37.62947 -0.5332,49.38281 -7.29323,42.00457 -30.26144,77.98085 -65.79102,103.05273 -17.08409,12.05559 -41.25149,22.07422 -61.92969,25.67383 -8.84662,1.54 -33.59319,2.68466 -40.4082,1.86914 C 114.29327,316.18171 87.152313,304.75938 61.050781,282.85547 30.005009,256.80245 10.540376,218.4737 6.6738281,175.78125 4.6307178,153.2223 8.2731644,128.16191 16.744141,106.49805 33.277956,64.214086 70.691641,28.386872 112.97656,14.345703 126.2219,9.9474505 135.22259,8.2004237 151.06836,6.9511719 156.79102,6.5000077 162.45877,6.3379636 168.05859,6.4628906 Z m -4.11718,17.5214844 c -1.96377,-0.0061 -3.93572,0.02688 -5.91602,0.09961 -20.51289,0.753386 -37.35248,4.811248 -54.875,13.222657 -39.598148,19.008446 -67.194791,54.59289 -76.966796,99.244138 -2.614081,20.78073 -3.276679,42.27143 1.351562,59.85742 7.247992,27.38298 17.749761,46.20244 36.203125,64.875 21.464058,21.71899 46.988049,35.16229 76.826169,40.46485 10.01107,1.77908 41.71621,1.13314 51.38477,-1.04688 49.98409,-11.27014 88.98243,-46.24824 104.59766,-93.8164 8.65646,-29.18362 8.47459,-59.84794 -0.24415,-87.03907 C 277.34297,61.946667 224.81807,24.172737 163.94141,23.984375 Z M 163.5,39 C 232.25945,39 288,94.740549 288,163.5 288,232.25945 232.25945,288 163.5,288 94.740549,288 39,232.25945 39,163.5 39,94.740549 94.740549,39 163.5,39 Z"
     sodipodi:nodetypes="sssssssssssssssssssssssssssccsssccssssss" />
  <path
     fill="currentColor"
     d="m 163.5,24 c 19.25391,0 37.32715,3.723633 54.21973,11.1709 17.07422,7.26562 31.92334,17.210442 44.54736,29.834466 12.62403,12.624025 22.56885,27.382327 29.83447,44.274904 C 299.36719,126.17285 303,144.24609 303,163.5 c 0,19.25391 -3.63281,37.41797 -10.89844,54.49219 -7.26562,16.89257 -17.21044,31.65087 -29.83447,44.2749 -12.62402,12.62403 -27.47314,22.56885 -44.54736,29.83447 C 200.82715,299.36719 182.75391,303 163.5,303 144.24609,303 126.17285,299.36719 109.28027,292.10156 92.20605,284.83594 77.35693,274.89112 64.73291,262.26709 52.108883,249.64306 42.16406,234.88476 34.89844,217.99219 27.632813,200.91797 24,182.75391 24,163.5 24,144.24609 27.632813,126.17285 34.89844,109.28027 42.16406,92.387693 52.108883,77.629391 64.73291,65.005366 77.35693,52.381342 92.20605,42.43652 109.28027,35.1709 126.17285,27.723633 144.24609,24 163.5,24 Z"
     id="path501"
     style="display:inline;stroke-width:0.272461"
     sodipodi:nodetypes="scssscscscscssscs" />
  <path
     fill="currentColor"
     d="m 163.36706,49.499888 v 0 l 4.78613,7.129637 q 4.78614,6.875007 10.50292,15.532423 5.71678,8.657416 10.23703,15.787053 l 4.78614,7.129636 -5.98268,1.400463 -5.98267,1.40046 v 45.57875 l 4.78614,-4.83796 q 5.05203,-5.0926 10.90176,-10.94909 5.84973,-5.85648 10.90176,-10.94908 l 4.78614,-4.83797 -2.92486,-4.83797 -2.92486,-4.83797 6.91331,-1.78241 q 0,0 15.28906,-3.94676 15.28906,-3.946762 15.28906,-3.946762 l 6.91331,-2.037038 -0.2659,6.87501 q -0.53178,6.87501 -0.93064,15.15047 -0.39884,8.27548 -0.66474,15.15048 l -0.53178,6.62038 -5.98269,-2.41899 q 0,0 -6.24857,-2.6736 l -8.50869,9.16667 q -8.77459,9.16668 -19.14456,20.24307 -10.36997,11.0764 -19.14456,20.49771 l -8.50869,9.16668 10.63586,-2.80093 q 0,0 23.53186,-6.11112 23.53186,-6.11112 23.53186,-6.11112 l 10.63586,-2.80092 -0.66474,-8.02085 -0.66474,-8.02084 6.38152,3.56483 q 6.11562,3.56481 13.42779,7.89352 7.31215,4.3287 13.69368,8.14815 l 6.11562,3.56482 -21.53763,37.68522 -4.52025,-7.76621 -4.52024,-7.76621 -11.16766,3.05556 q 0,0 -24.59545,6.7477 -24.59544,6.74769 -24.59544,6.74769 l -11.16766,2.80092 v 7.6389 16.93289 17.44215 8.40278 h -7.17921 -15.6879 -15.68791 -6.91332 v -7.89353 -17.18752 -17.44214 -7.89353 l -11.16766,-2.80092 q -11.16766,-3.05556 -24.59544,-6.74769 -13.427789,-3.69214 -24.59545,-6.7477 l -11.167661,-3.05556 -4.520244,7.76621 -4.520244,7.76621 -21.537631,-37.68522 6.115623,-3.56482 q 6.115624,-3.81945 13.560731,-8.14815 7.445108,-4.32871 13.560733,-7.89352 l 6.115623,-3.56483 -0.531793,8.02084 -0.531794,8.02085 10.635868,2.80092 q 0,0 23.531869,6.11112 23.53185,6.11112 23.53185,6.11112 l 10.63586,2.80093 -8.77459,-9.16668 q -8.50869,-9.42131 -18.87866,-20.49771 -10.36997,-11.07639 -19.144565,-20.24307 l -8.774591,-9.16667 q 0,0.25462 -6.115624,2.6736 l -6.115624,2.41899 -0.265898,-6.62038 q -0.265896,-6.875 -0.797689,-15.15048 -0.531793,-8.27546 -0.79769,-15.15047 l -0.265897,-6.875009 6.913314,2.037038 q 6.913314,1.78241 15.156112,3.946761 8.242802,2.16436 15.156112,3.94676 l 6.91332,1.78241 q 0.26589,0.25464 -2.79191,4.96529 l -3.05782,4.71065 5.05204,4.83797 q 4.78613,4.83796 10.76882,10.82177 5.98267,5.9838 10.76881,10.82177 l 5.05203,5.09259 v -6.875 -15.78705 -15.78705 -7.12965 l -5.98267,-1.40046 -5.98267,-1.400462 10.76882,-17.442147 q 0,0 19.27751,-28.136603 z"
     id="path363"
     style="display:inline;fill:#ffffff;stroke-width:0.260202" />
</svg>
