<?xml version="1.0" standalone="no"?>
<!DOCTYPE svg PUBLIC "-//W3C//DTD SVG 20010904//EN" "http://www.w3.org/TR/2001/REC-SVG-20010904/DTD/svg10.dtd">
<!-- Created using Krita: https://krita.org -->
<svg xmlns="http://www.w3.org/2000/svg" 
    xmlns:xlink="http://www.w3.org/1999/xlink"
    xmlns:krita="http://krita.org/namespaces/svg/krita"
    xmlns:sodipodi="http://sodipodi.sourceforge.net/DTD/sodipodi-0.dtd"
    width="249.84pt"
    height="249.84pt"
    viewBox="0 0 249.84 249.84">
<defs/>
<path id="shape0" transform="matrix(0.720000031660889 0 0 0.720000031660889 0 0)" fill="#000000" stroke-opacity="0" stroke="#000000" stroke-width="0" stroke-linecap="square" stroke-linejoin="bevel" d="M347 173.5C347 219.497 328.708 263.658 296.183 296.183C263.658 328.708 219.497 347 173.5 347C127.503 347 83.3421 328.708 50.817 296.183C18.2919 263.658 5.63287e-15 219.497 0 173.5C-5.63287e-15 127.503 18.2919 83.3421 50.817 50.817C83.3421 18.2919 127.503 8.44931e-15 173.5 0C219.497 -8.44931e-15 263.658 18.2919 296.183 50.817C328.708 83.3421 347 127.503 347 173.5Z" sodipodi:nodetypes="ccccccccc"/><path id="shape1" transform="matrix(0.720000031660889 0 0 0.720000031660889 4.99680021972657 4.99680021972657)" fill="#ffffff" stroke-opacity="0" stroke="#000000" stroke-width="0" stroke-linecap="square" stroke-linejoin="bevel" d="M333.12 166.56C333.12 210.718 315.56 253.112 284.336 284.336C253.112 315.56 210.718 333.12 166.56 333.12C122.402 333.12 80.0084 315.56 48.7843 284.336C17.5602 253.112 5.32907e-15 210.718 0 166.56C-5.32907e-15 122.402 17.5602 80.0084 48.7843 48.7843C80.0084 17.5602 122.402 7.99361e-15 166.56 0C210.718 -7.99361e-15 253.112 17.5602 284.336 48.7843C315.56 80.0084 333.12 122.402 333.12 166.56Z" sodipodi:nodetypes="ccccccccc"/><path id="shape2" transform="matrix(0.720000031660889 0 0 0.720000031660889 13.741200604248 13.741200604248)" fill="#000000" stroke-opacity="0" stroke="#000000" stroke-width="0" stroke-linecap="square" stroke-linejoin="bevel" d="M308.83 154.415C308.83 195.353 292.55 234.656 263.603 263.603C234.656 292.55 195.353 308.83 154.415 308.83C113.477 308.83 74.1744 292.55 45.2271 263.603C16.2798 234.656 3.55271e-15 195.353 0 154.415C-3.55271e-15 113.477 16.2798 74.1744 45.2271 45.2271C74.1744 16.2798 113.477 7.10543e-15 154.415 0C195.353 -7.10543e-15 234.656 16.2798 263.603 45.2271C292.55 74.1744 308.83 113.477 308.83 154.415Z" sodipodi:nodetypes="ccccccccc"/><path id="shape01" transform="matrix(1.00000000685535 0 0 1.00000000685535 79.8453458067089 26.8199999097841)" fill="#ffffff" fill-rule="evenodd" stroke="none" stroke-width="1" stroke-linecap="square" stroke-linejoin="bevel" d="M6.77965 2.07L28.6047 0C17.253 37.2417 15.2986 76.9224 22.7417 119.042C19.8761 134.165 18.0728 144.38 17.9847 151.83C-1.36657 101.395 -5.10157 51.4751 6.77965 2.07Z" sodipodi:nodetypes="ccccc"/><path id="shape11" transform="matrix(1.00000000685535 0 0 1.00000000685535 101.520966922609 32.6700003240058)" fill="#ffffff" fill-rule="evenodd" stroke="none" stroke-width="1" stroke-linecap="square" stroke-linejoin="bevel" d="M61.424 0L80.4247 11.0504C28.8005 67.3785 8.7965 126.245 20.4125 187.65C13.0388 191.681 9.68713 192.996 0.302411 192.996C-2.77247 107.734 17.6014 43.4023 61.424 0Z" sodipodi:nodetypes="ccccc"/><path id="shape3" transform="matrix(1.00000000685535 0 0 1.00000000685535 122.850001280364 188.640001966039)" fill="#ffffff" fill-rule="evenodd" stroke="none" stroke-width="1" stroke-linecap="square" stroke-linejoin="bevel" d="M0 0C3.26571 2.68715 8.42571 7.30715 15.48 13.86C11.6948 18.5829 7.58482 23.1129 3.15 27.45C1.70331 19.3343 0.65331 10.1843 0 0Z" sodipodi:nodetypes="cccc"/><path id="shape0" transform="translate(103.103281284456, 39.1725022495732)" fill="#ffffff" fill-rule="evenodd" stroke="none" stroke-width="0.72" stroke-linecap="square" stroke-linejoin="bevel" d="M1.74672 81.6075C-1.47768 60.0464 -0.23796 33.1083 5.46589 0.793173L22.5592 0C10.3259 25.6514 3.38836 52.8539 1.74672 81.6075Z" sodipodi:nodetypes="cccc"/><path id="shape1" transform="translate(108.810004525489, 40.6800016919116)" fill="#ffffff" fill-rule="evenodd" stroke="none" stroke-width="0.72" stroke-linecap="square" stroke-linejoin="bevel" d="M0 79.38C1.338 48.684 8.658 22.224 21.96 0L37.53 3.78C22.242 21.6 9.732 46.8 0 79.38Z" sodipodi:nodetypes="cccc"/>
</svg>
