<?xml version="1.0" encoding="UTF-8" standalone="no"?>
<!-- Created with Inkscape (http://www.inkscape.org/) -->

<svg
   version="1.1"
   id="svg10"
   width="327"
   height="327"
   viewBox="0 0 327 327"
   sodipodi:docname="Dfc-land.svg"
   inkscape:version="0.92.2 (5c3e80d, 2017-08-06)"
   inkscape:export-filename="Face-Down.svg"
   inkscape:export-xdpi="96"
   inkscape:export-ydpi="96"
   xmlns:inkscape="http://www.inkscape.org/namespaces/inkscape"
   xmlns:sodipodi="http://sodipodi.sourceforge.net/DTD/sodipodi-0.dtd"
   xmlns="http://www.w3.org/2000/svg"
   xmlns:svg="http://www.w3.org/2000/svg"
   xmlns:rdf="http://www.w3.org/1999/02/22-rdf-syntax-ns#"
   xmlns:cc="http://creativecommons.org/ns#"
   xmlns:dc="http://purl.org/dc/elements/1.1/">
  <metadata
     id="metadata16">
    <rdf:RDF>
      <cc:Work
         rdf:about="">
        <dc:format>image/svg+xml</dc:format>
        <dc:type
           rdf:resource="http://purl.org/dc/dcmitype/StillImage" />
        <dc:title />
      </cc:Work>
    </rdf:RDF>
  </metadata>
  <defs
     id="defs14" />
  <sodipodi:namedview
     pagecolor="#ffffff"
     bordercolor="#666666"
     borderopacity="1"
     objecttolerance="10"
     gridtolerance="10"
     guidetolerance="10"
     inkscape:pageopacity="0"
     inkscape:pageshadow="2"
     inkscape:window-width="1920"
     inkscape:window-height="1017"
     id="namedview12"
     showgrid="false"
     inkscape:zoom="2.6402439"
     inkscape:cx="164"
     inkscape:cy="148.84988"
     inkscape:window-x="-8"
     inkscape:window-y="-8"
     inkscape:window-maximized="1"
     inkscape:current-layer="svg10"
     inkscape:showpageshadow="0"
     inkscape:pagecheckerboard="1"
     inkscape:deskcolor="#d1d1d1" />
  <path
     id="path1283"
     style="fill:#ffffff;stroke-width:2.02057"
     d="m 323.5,163.5 a 160,160 0 0 1 -160,160 160,160 0 0 1 -160,-160 160,160 0 0 1 160,-160 160,160 0 0 1 160,160 z" />
  <path
     id="path38"
     style="display:inline;fill:#000000;stroke-width:0.997696"
     d="M 161.14453,0.0234375 C 127.1177,0.59484493 93.310034,11.90479 65.617188,32.416016 54.441936,40.693173 36.921585,58.870153 29.185547,70.214844 6.3242283,103.74037 -3.8634338,145.53827 1.3261719,184.51367 c 4.7640878,35.77957 19.5382731,66.44262 44.3632811,92.07813 27.206843,28.09511 62.919457,45.73367 100.861327,49.81445 13.38116,1.4392 35.71542,0.1788 50.64063,-2.85742 C 282.54309,306.1858 339.60667,221.88381 324.60547,135.31641 318.71024,101.29692 301.87367,70.032212 276.09961,45.248047 251.01782,21.129571 219.38802,5.9483505 184.66406,1.3613281 176.86079,0.33051789 168.99688,-0.10842575 161.14453,0.0234375 Z m 6.91406,6.4394531 c 39.19875,0.8744893 75.085,15.7573154 103.44336,43.1523434 26.93906,26.023953 42.98098,56.600076 47.70313,90.925786 1.77419,12.89675 1.50752,37.62947 -0.5332,49.38281 -7.29323,42.00457 -30.26144,77.98085 -65.79102,103.05273 -17.08409,12.05559 -41.25149,22.07422 -61.92969,25.67383 -8.84662,1.54 -33.59319,2.68466 -40.4082,1.86914 C 114.29327,316.18171 87.152313,304.75938 61.050781,282.85547 30.005009,256.80245 10.540376,218.4737 6.6738281,175.78125 4.6307178,153.2223 8.2731644,128.16191 16.744141,106.49805 33.277956,64.214086 70.691641,28.386872 112.97656,14.345703 126.2219,9.9474505 135.22259,8.2004237 151.06836,6.9511719 156.79102,6.5000077 162.45877,6.3379636 168.05859,6.4628906 Z m -4.11718,17.5214844 c -1.96377,-0.0061 -3.93572,0.02688 -5.91602,0.09961 -20.51289,0.753386 -37.35248,4.811248 -54.875,13.222657 -39.598148,19.008446 -67.194791,54.59289 -76.966796,99.244138 -2.614081,20.78073 -3.276679,42.27143 1.351562,59.85742 7.247992,27.38298 17.749761,46.20244 36.203125,64.875 21.464058,21.71899 46.988049,35.16229 76.826169,40.46485 10.01107,1.77908 41.71621,1.13314 51.38477,-1.04688 49.98409,-11.27014 88.98243,-46.24824 104.59766,-93.8164 8.65646,-29.18362 8.47459,-59.84794 -0.24415,-87.03907 C 277.34297,61.946667 224.81807,24.172737 163.94141,23.984375 Z M 163.5,39 C 232.25945,39 288,94.740549 288,163.5 288,232.25945 232.25945,288 163.5,288 94.740549,288 39,232.25945 39,163.5 39,94.740549 94.740549,39 163.5,39 Z"
     sodipodi:nodetypes="sssssssssssssssssssssssssssccsssccssssss" />
  <path
     fill="currentColor"
     d="M 159.95801,303 Q 131.34961,301.91017 106.55566,290.73926 82.034179,279.56836 63.779294,260.76855 45.524409,241.96876 34.898439,217.17481 24.272459,192.10841 23.999999,163.5 q 0,-28.88086 10.89844,-54.21972 10.89843,-25.338871 29.834467,-44.274903 18.936039,-18.936035 44.547364,-29.834475 25.33887,-11.1709 54.21973,-11.1709 28.88086,0 54.21973,11.1709 25.61132,10.89844 44.54736,29.834475 18.93604,18.936032 29.83447,44.274903 Q 303,134.61914 303,163.5 q 0,23.15919 -7.35645,44.6836 -7.6289,21.52441 -21.11572,39.3706 -13.48681,17.84619 -32.01416,30.92432 -18.52734,13.07813 -40.86914,19.34473 -8.44629,2.45215 -17.02881,3.67822 Q 176.0332,302.72754 167.04199,303 H 163.5 Z m 41.68652,-159.66211 q -1.08984,2.99707 -0.95361,2.99707 0.13623,0 -2.86084,7.90137 4.08691,6.53906 9.26367,15.12159 5.17676,8.58252 15.80273,27.10986 l -50.40527,0.27246 -4.08691,5.17676 -5.17676,6.81152 35.69238,58.5791 q 2.72461,5.17676 9.26367,5.85792 6.53907,0.68115 10.08106,-3.67823 4.08691,-4.90429 13.21435,-20.43456 9.12745,-15.53028 49.17921,-81.73829 5.99414,-6.2666 3.1333,-15.39405 -2.86084,-9.12744 -12.12451,-8.31005 z m 17.70996,-76.833981 q -7.90136,9.263672 -15.25781,18.527343 -7.62891,9.536133 -14.84912,18.936038 -7.22022,9.3999 -14.57666,18.93603 -7.35645,9.26368 -14.71289,19.07227 -8.99121,0 -17.98242,0.68115 -8.99122,0.68115 -17.70996,0.95362 4.35937,7.6289 8.99121,15.25781 l 9.26367,15.25781 q -4.08692,11.44336 -8.44629,22.61426 -4.08692,11.1709 -8.31006,22.3418 -4.22315,11.1709 -8.58252,22.3418 -4.35937,11.17089 -8.44629,22.34179 7.90137,-9.53613 14.98535,-19.07226 7.35645,-9.8086 14.3042,-19.61719 6.94776,-9.8086 14.3042,-19.61719 7.08399,-9.80859 14.98535,-19.34473 h 18.66358 18.66357 l -9.26367,-15.25781 -9.26367,-15.25781 q 3.81445,-11.1709 8.17383,-22.3418 4.08691,-11.1709 8.31005,-22.3418 4.22315,-11.170896 8.58252,-22.341795 4.08692,-10.898437 8.17383,-22.069336 z M 119.63379,56.42285 h -0.81738 -1.08985 q -4.63183,0 -14.71289,15.666509 Q 92.932617,87.755863 47.159179,163.5 q -4.08691,5.72169 -2.04346,14.03175 2.04346,8.31005 10.217291,8.58251 h 15.802731 55.582029 l 4.08692,-10.62597 -3.81446,-6.53907 q 0,0 -8.31006,-14.44043 -8.31005,-14.44043 -8.31005,-14.44043 l -3.81446,-6.53906 47.68067,-1.63476 3.54199,-4.63184 q 0,0 6.2666,-8.17383 -8.99121,-13.89551 -17.30127,-28.199706 -8.31006,-14.3042 -17.02881,-28.472172 -1.63476,-2.99707 -4.22314,-4.359376 -2.58838,-1.362297 -5.85791,-1.634766 z"
     id="path936"
     style="stroke-width:0.272461" />
</svg>
