<?xml version="1.0" encoding="UTF-8" standalone="no"?>
<!-- Created with Inkscape (http://www.inkscape.org/) -->

<svg
   width="781.15198"
   height="999.99994"
   viewBox="0 0 206.67979 264.58329"
   version="1.1"
   id="svg5"
   xmlns="http://www.w3.org/2000/svg"
   xmlns:svg="http://www.w3.org/2000/svg">
  <defs
     id="defs2" />
  <g
     id="g3430"
     transform="matrix(0.97779199,0.37729852,-0.37729852,0.97779199,51.978974,-35.877338)">
    <path
       id="path693-3"
       style="display:inline;fill:#000000;fill-opacity:1;stroke-width:0.535001"
       d="m 39.479244,24.172685 v 96.795645 22.17849 96.79512 h 43.502771 c 0,0 -0.381093,-21.86597 20.502105,-21.70978 20.8832,0.15619 20.50211,21.70978 20.50211,21.70978 H 167.489 V 143.14682 120.96833 24.172685 h -43.50277 c 0,0 0.38109,21.865975 -20.50211,21.709786 C 82.60092,45.726282 82.982015,24.172685 82.982015,24.172685 Z" />
    <path
       id="path693"
       style="display:inline;fill:#ffffff;stroke-width:0.535001"
       d="m 40.140702,24.834143 c 0,71.482116 0,142.964227 0,214.446347 h 42.179855 c 0,0 0.280347,-21.86598 21.163563,-21.70979 20.88322,0.15619 21.16357,21.70979 21.16357,21.70979 h 42.17985 c 0,-71.48212 0,-142.964231 0,-214.446347 h -42.17985 c 0,0 -0.28035,21.865975 -21.16357,21.709786 C 82.600902,46.38774 82.320557,24.834143 82.320557,24.834143 Z" />
    <path
       id="path634"
       style="display:inline;fill:#000000;stroke-width:0.535001"
       d="m 51.229948,35.766809 c 0,64.19367 0,128.387341 0,192.581011 h 23.125203 c 0,0 2.742508,-20.92923 29.128969,-21.2416 26.38648,-0.31238 29.12897,21.2416 29.12897,21.2416 h 23.12521 c 0,-64.19367 0,-128.387341 0,-192.581011 h -23.12521 c 0,0 -2.7425,20.929738 -29.12897,21.242114 C 77.097646,57.321301 74.355151,35.766809 74.355151,35.766809 Z" />
    <path
       id="path460"
       style="display:inline;fill:#ffffff;stroke-width:0.535001"
       d="m 56.988253,41.194902 c 0,60.574938 0,121.149888 0,181.724828 h 12.590962 c 0,0 4.884587,-21.83856 33.904905,-22.08806 29.02032,-0.2495 33.90491,22.08806 33.90491,22.08806 h 12.59096 c 0,-60.57494 0,-121.14989 0,-181.724828 h -12.59096 c 0,0 -4.88459,21.838559 -33.90491,22.088057 C 74.463801,63.532457 69.579215,41.194902 69.579215,41.194902 Z" />
  </g>
</svg>
